<?xml version="1.0" encoding="UTF-8"?>
<svg xmlns="http://www.w3.org/2000/svg" viewBox="0 0 565 520" width="70" height="64" preserveAspectRatio="xMidYMid">
    <rect width="565" height="520" fill="white"/>
    <path fill="#0B3C84" d="M17,159c-9.5-5.6-20.3-29.3-9.7-36.8c4.2-2.5,6.6-1.2,9.5,0.2c29,14.9,57.7,30.4,86.4,45.7 c52.5,27.9,105.3,55.5,157.5,84c16.1,8.8,29.9,8.3,45.9-0.4c77.7-42,155.8-83.2,233.9-124.4c6-3.2,8.9-5.4,15.9-3.4 c6.5,7,1.5,31.3-5.1,35.2c-9.1,5.5-16.6,7.7-26,12.7c-16,8.6-32,17.2-48,25.9c-29.1,15-25.2,13.1-36.8,19.7 c-21,11.7-39.5,21-61.6,34.1c-13.5,7.9-18.1,8.8-32.5,17.9c-11.6,6.9-11.5,20.9-9,32.7c-14,7.7-28.1,15.5-42.1,23.2 c-7.6,4.2-15,4.8-22.9,0.4c-14.5-8.2-29.3-16-43.9-24c-0.6-12.2,2-28.7-11.9-34.4"/>
    <path fill="#0B3C84" d="M350.7,372.4c-13.4,6.1-14.7,21.6-13.6,34.8c-0.6,0.3-1.1,0.5-1.7,0.8c-53.3,29-53.3,29-106.6-1.1 c-0.5-11.3,0.2-27.1-13.1-34.2c-9.8-6-24.3-13.4-33.9-19.5c-20.6-12.5-29.8-18.6-51.3-30.3c-4.2-2.7-12.9-6.9-18.2-9.7 c-9.7-5.1-9.7-5.1-19.7-10.6c-24.3-12.9-49.3-25.3-73.7-37.9c-11.6-6.2-19-26.7-13.2-38.4c2.7-5.7,8.6-0.8,11.9,1 c45,23.5,89.8,47.5,134.6,71.3c37.1,19.7,74.3,39.2,111.2,59.2c14,7.6,27,7.1,40.9-0.4c80.7-43.2,161.6-85.8,242.2-129.2 c11.5-6.2,14.3-5.2,14.8,8.3c0.6,15.1-3.7,24.1-18.1,30.7c-22.7,10.5-44.2,23.5-66.2,35.4"/>
    <path fill="#0B3C84" d="M485.5,103.7C423,70.5,360.4,37.6,298.1,4.1c-11.3-6.1-20.6-5-31.5,0.9C205.9,37.7,145,69.8,84.2,102.2 c-4.3,2.3-8.1,3.3-8.8,8.7c-0.9,7.1,3.9,8.6,8.3,11c61.8,33.2,123.9,65.1,185.8,98.1c4.4,2.4,8.9,4.6,16.7,4.1 c1.8-0.7,6-1.9,9.8-3.9C359.7,186.4,423.2,152.4,487,119C501.6,111.4,493.4,107.9,485.5,103.7z M392.8,117.4 c-34.2,18.2-68.5,36.4-102.8,54.5c0,0,0,0-0.1,0c-3.9,2-8.5,2-12.6,0.2c-1.6-0.7-3.2-1.4-4.7-2.2c-31.5-16.6-63-33.3-94.5-50 c-3.7-2-8.5-2.7-8.6-7.8c-0.1-5.2,4.8-6.3,8.4-8.3c30.8-16.6,61.8-33,92.6-49.6c7.6-4.1,14.6-5.6,22.9-1 c32.4,17.7,65,34.8,97.6,52.1C397.6,108.6,403,112,392.8,117.4z"/>
    <path fill="#0B3C84" d="M307.2,456.5c125.7-63.9,207.5-108.9,232.5-123.5c6.8-4,14.5-9.1,17.4-5.1c6.9,9.6-1.1,32-6.6,35.9 c-4.6,3.2-6.4,3.5-11.4,6.2c-78.6,41.8-157.2,83.5-235.7,125.5c-14,7.5-26.9,7.7-41,0.2C181.2,452.1,106,412,24.4,369.2 C13.2,363.3,6.9,358,3.8,345.3c-5.2-21.1,1-23.2,16.7-14.9c79.2,41.9,158.6,83.6,237.4,126.3c3.8,2.2,12.5,6.6,24.4,6.6 C294.5,463.3,303.4,458.7,307.2,456.5z"/>
</svg>