<?xml version="1.0" encoding="UTF-8"?>
<svg xmlns="http://www.w3.org/2000/svg" viewBox="0 0 180 180">
    <rect width="180" height="180" fill="#2b247c"/>
    <g transform="translate(40,10)">
        <path fill="white" opacity="0.8" d="M50 44.3013L25 1L0 44.3013L25 87.6025L50 44.3013Z"></path>
        <path fill="white" opacity="0.45" d="M50 44.3091L75 1.00781L25 1.00781L0 44.3091H50Z"></path>
        <path fill="white" opacity="0.6" d="M75 1.00781L25 1.00781L50 44.3091H100L75 1.00781Z"></path>
        <path fill="white" opacity="0.8" d="M50 115.699L75 159L100 115.699L75 72.3975L50 115.699Z"></path>
        <path fill="white" opacity="0.45" d="M50 115.691L25 158.993H75L100 115.691L50 115.691Z"></path>
        <path fill="white" opacity="0.6" d="M25 158.993H75L50 115.691L0 115.691L25 158.993Z"></path>
    </g>
</svg>